P2
2 2
255
  0  127  255   64  